{"glyphs":{":":{"x_min":0,"x_max":135,"ha":135,"o":""},"$":{"x_min":0,"x_max":302,"ha":302,"o":"m 139 740 l 151 740 l 151 698 q 202 698 235 665 q 268 631 268 580 q 268 544 256 530 q 244 515 226 515 q 209 515 198 527 q 187 539 187 557 q 187 576 198 588 q 209 601 223 601 q 228 601 235 600 l 242 599 q 246 599 247 600 q 249 602 249 607 q 249 637 222 661 q 196 685 151 686 l 151 457 q 213 361 229 332 q 259 278 271 238 q 283 198 283 167 q 283 99 244 50 q 204 1 151 -5 l 151 -108 l 140 -108 l 140 -5 q 86 -5 53 32 q 19 69 19 130 q 19 172 34 192 q 49 212 66 212 q 81 212 91 199 q 102 186 102 161 q 102 137 92 125 q 82 112 67 112 q 60 112 40 117 q 37 117 36 115 q 35 113 35 107 q 35 68 63 39 q 91 10 140 8 l 139 291 q 68 394 48 443 q 29 492 29 536 q 29 604 65 654 q 93 691 139 697 z m 139 685 q 113 678 98 659 q 84 641 84 613 q 84 583 96 552 q 108 520 139 473 z m 151 271 l 151 9 q 185 17 203 39 q 220 61 220 99 q 220 129 208 162 q 197 194 151 271 z"},"?":{"x_min":0,"x_max":260,"ha":260,"o":"m 148 527 l 148 672 q 148 704 138 716 q 128 729 113 729 q 85 729 62 698 q 29 656 29 598 q 29 585 31 581 q 33 578 35 578 q 38 578 46 584 q 59 596 70 596 q 85 596 99 578 q 113 560 113 527 q 113 495 101 479 q 88 464 71 464 q 49 464 34 485 q 13 513 13 568 q 13 653 48 697 q 83 741 127 741 q 174 741 206 704 q 238 667 238 593 q 238 542 228 510 q 221 487 207 466 q 196 451 148 395 q 81 316 81 256 q 81 231 97 213 q 113 196 134 196 q 156 196 171 212 q 185 228 185 257 q 185 281 171 309 q 167 314 167 317 l 172 322 q 178 322 184 311 q 197 289 197 258 q 197 223 179 204 q 162 184 135 184 q 108 184 88 206 q 68 227 68 260 q 68 279 74 299 q 81 319 105 367 q 129 416 138 452 q 148 488 148 527 z m 112 110 q 131 110 144 96 q 156 82 156 54 q 156 23 144 9 q 132 -6 113 -6 q 94 -6 81 9 q 69 23 69 52 q 69 80 82 95 q 94 110 112 110 z"},"<":{"x_min":0,"x_max":469,"ha":469,"o":"m 49 390 l 420 546 l 420 497 l 109 370 l 420 242 l 420 193 l 48 350 z"},"'":{"x_min":0,"x_max":177,"ha":177,"o":"m 77 455 l 51 600 q 40 660 40 681 q 40 712 52 726 q 65 740 87 740 q 109 740 123 726 q 138 711 138 688 q 138 670 125 600 l 99 455 z"},"=":{"x_min":0,"x_max":469,"ha":469,"o":"m 48 470 l 420 470 l 420 425 l 48 425 z m 48 312 l 420 312 l 420 268 l 48 268 z"},"a":{"x_min":0,"x_max":281,"ha":281,"o":"m 43 472 q 50 475 57 476 q 63 477 68 477 q 88 477 101 463 q 115 449 115 426 q 115 402 101 388 q 87 374 64 374 q 42 374 28 388 q 15 403 15 431 q 15 473 47 501 q 79 530 137 530 q 190 530 213 510 q 236 490 236 459 l 236 38 q 236 30 240 26 q 244 21 249 21 q 261 21 273 47 q 277 55 280 55 l 286 49 q 286 32 264 13 q 242 -6 211 -6 q 185 -6 171 6 q 156 19 149 49 q 126 16 110 5 q 93 -6 70 -6 q 42 -6 27 9 q 12 23 12 46 l 12 230 q 12 260 25 274 q 38 289 102 310 q 130 319 149 329 l 149 470 q 149 492 137 504 q 126 516 107 516 q 64 516 43 472 z m 149 314 q 118 302 109 290 q 100 277 100 250 l 100 44 q 100 34 103 29 q 107 24 112 24 q 120 24 130 41 q 149 71 149 115 z"},"L":{"x_min":0,"x_max":304,"ha":304,"o":"m 39 722 l 9 722 q 3 726 3 728 q 3 731 9 734 l 171 734 q 174 734 176 733 q 177 731 177 729 q 177 726 176 724 q 174 722 171 722 l 139 722 l 139 13 l 160 13 q 182 13 198 25 q 215 38 230 77 q 253 134 264 202 q 274 271 275 290 q 275 296 277 298 l 281 300 l 285 298 q 287 296 287 294 l 283 0 l 9 0 q 6 0 5 2 q 3 3 3 6 q 3 9 5 11 q 6 13 9 13 l 39 13 z"},"3":{"x_min":0,"x_max":281,"ha":281,"o":"m 143 397 q 201 380 225 351 q 262 302 262 205 q 262 97 220 46 q 178 -6 125 -6 q 83 -6 50 34 q 18 75 18 153 q 18 208 38 236 q 54 256 77 256 q 97 256 111 239 q 125 222 125 187 q 125 151 110 132 q 94 114 73 114 q 61 114 46 122 q 38 126 35 126 q 32 124 32 121 q 32 72 60 40 q 88 7 119 7 q 138 7 149 18 q 163 33 163 50 l 163 323 q 163 360 151 375 q 140 390 121 390 q 111 390 100 384 q 92 380 90 380 q 87 380 84 381 l 57 391 l 53 394 l 57 397 l 84 412 l 88 413 q 93 413 104 408 q 116 403 125 403 q 139 403 146 412 q 158 425 158 441 l 158 697 q 158 714 151 722 q 144 729 130 729 q 96 729 67 698 q 38 667 38 625 q 38 622 42 618 q 45 618 59 625 q 72 632 83 632 q 102 632 115 617 q 127 602 127 572 q 127 543 113 528 q 99 512 78 512 q 56 512 41 531 q 26 550 26 596 q 26 668 57 704 q 88 740 134 740 q 183 740 218 698 q 252 656 252 574 q 252 499 226 458 q 199 417 143 397 z"},";":{"x_min":0,"x_max":135,"ha":135,"o":""},"J":{"x_min":0,"x_max":304,"ha":304,"o":"m 152 722 l 120 722 q 117 722 116 724 q 114 726 114 728 q 114 731 120 734 l 280 734 q 282 734 284 733 q 286 731 286 729 q 286 726 284 724 q 282 722 280 722 l 253 722 l 253 123 q 253 65 218 29 q 182 -7 125 -7 q 75 -7 43 26 q 11 59 11 115 q 11 164 28 185 q 45 207 67 207 q 85 207 99 190 q 112 173 112 142 q 112 112 99 97 q 86 82 69 82 q 62 82 52 84 q 43 87 38 87 q 35 87 33 85 q 30 82 30 76 q 30 52 53 29 q 77 6 102 6 q 123 6 135 21 q 152 42 152 80 z"},"V":{"x_min":0,"x_max":285,"ha":285,"o":"m 32 722 l 7 722 q 4 722 3 723 q 1 725 1 728 q 1 731 3 733 q 4 734 7 734 l 163 734 q 165 734 167 733 q 168 731 168 728 q 168 725 167 723 q 166 722 163 722 l 133 722 l 175 181 l 233 672 q 234 679 234 686 q 234 702 229 710 q 225 719 217 721 l 201 722 q 198 724 198 728 q 198 731 204 734 l 277 734 q 280 734 281 733 q 283 731 283 729 q 283 727 281 725 q 280 724 277 723 q 266 722 259 713 q 249 698 245 663 l 171 45 q 167 7 165 3 q 163 0 158 0 l 111 0 q 107 0 105 4 q 103 8 98 60 z"},"\"":{"x_min":0,"x_max":406,"ha":406,"o":"m 281 455 l 255 598 l 244 657 q 243 669 243 681 q 243 712 257 726 q 271 740 293 740 q 314 740 328 726 q 342 712 342 688 q 342 646 333 598 l 305 455 z m 103 455 l 76 600 q 65 659 65 681 q 65 712 78 726 q 91 740 113 740 q 134 740 148 726 q 163 711 163 688 q 163 668 150 599 l 124 455 z"},"7":{"x_min":0,"x_max":281,"ha":281,"o":"m 257 734 l 257 667 q 257 641 250 608 q 242 575 215 494 q 181 393 170 335 q 159 277 159 217 q 159 183 161 146 q 163 109 163 102 q 163 44 141 15 q 125 -6 101 -6 q 75 -6 58 16 q 40 38 40 84 q 40 138 57 191 q 74 244 135 356 q 187 452 210 519 q 233 587 240 651 l 29 651 l 29 539 q 29 536 27 534 q 26 532 23 532 q 21 532 19 534 q 17 536 17 539 l 17 734 z"},"S":{"x_min":0,"x_max":292,"ha":292,"o":"m 76 42 q 60 31 42 13 q 25 -4 21 -4 q 20 -4 19 -2 q 18 -1 18 4 l 18 311 q 18 312 19 314 q 20 315 21 315 q 24 315 26 312 q 29 308 29 302 l 29 281 q 29 220 48 142 q 67 64 98 31 q 113 14 133 14 q 156 14 173 36 q 190 58 190 102 q 190 144 175 190 q 154 253 84 391 q 40 477 28 515 q 16 553 16 589 q 16 661 50 702 q 84 742 127 742 q 165 742 194 703 q 219 716 242 735 q 250 742 252 742 q 253 742 254 741 q 255 739 255 734 l 255 469 q 255 464 252 460 q 251 458 249 458 q 246 458 244 461 q 243 463 238 496 q 218 648 185 697 q 166 726 141 726 q 122 726 108 709 q 95 692 95 660 q 95 602 161 469 l 204 383 q 249 293 263 241 q 278 188 278 147 q 278 75 242 34 q 207 -7 159 -7 q 107 -7 76 42 z"},"}":{"x_min":0,"x_max":260,"ha":260,"o":"m 2 727 l 2 741 q 78 727 113 697 q 170 649 170 581 q 170 561 159 512 q 150 477 150 459 q 150 432 172 410 q 194 388 252 375 l 252 359 q 195 348 172 325 q 150 303 150 278 q 150 267 162 211 q 171 168 171 149 q 171 113 149 78 q 127 43 91 23 q 55 3 2 -6 l 2 8 q 63 26 83 48 q 104 70 104 98 q 104 119 91 177 q 83 213 83 229 q 83 255 99 284 q 115 312 146 334 q 167 349 216 367 q 172 382 152 396 q 120 418 101 448 q 83 477 83 505 q 83 528 96 586 q 104 618 104 632 q 104 665 83 687 q 63 708 2 727 z"},"Z":{"x_min":0,"x_max":302,"ha":302,"o":"m 29 734 l 284 734 l 109 13 l 155 13 q 184 13 208 41 q 232 68 252 151 q 271 233 272 287 l 273 292 l 278 294 q 281 294 284 291 l 279 0 l 6 0 l 182 722 l 142 722 q 119 722 104 708 q 83 688 67 620 q 52 553 41 470 l 41 467 l 40 456 q 38 454 35 454 q 32 454 29 458 z"},"x":{"x_min":0,"x_max":254,"ha":254,"o":"m 30 511 l 9 511 l 6 512 q 4 514 4 517 q 4 521 9 524 l 134 524 q 137 524 138 522 q 140 520 140 517 q 140 514 137 512 l 117 511 l 149 355 l 188 482 q 188 485 188 487 q 188 497 183 503 q 177 510 170 511 q 166 512 164 513 q 163 515 163 517 q 163 520 165 521 q 167 524 170 524 l 231 524 q 233 524 235 522 q 237 521 237 518 q 237 515 236 513 q 234 512 231 511 q 207 507 196 469 l 155 331 l 223 13 l 237 13 q 240 13 241 11 q 243 9 243 6 q 243 3 241 2 q 240 0 237 0 l 108 0 q 106 0 104 2 q 103 3 103 6 q 103 9 104 11 q 106 13 108 13 l 134 13 l 95 197 l 52 49 q 50 44 50 41 q 50 30 57 22 q 64 14 72 13 q 76 12 78 11 q 79 9 79 7 q 79 4 77 2 q 75 0 72 0 l 9 0 q 4 3 4 6 q 4 9 5 11 q 6 12 9 13 q 20 15 25 22 q 34 34 45 71 l 90 221 z"},")":{"x_min":0,"x_max":192,"ha":192,"o":"m 77 83 l 77 652 q 77 696 66 711 q 55 726 29 729 q 24 729 22 730 q 21 732 21 734 q 21 737 23 739 q 25 740 30 740 q 53 740 74 730 q 95 720 111 698 q 128 677 137 646 q 153 598 159 554 q 166 510 166 450 l 166 279 q 166 121 115 45 q 81 -6 32 -6 q 24 -6 21 -3 q 19 -2 19 0 l 21 4 q 23 6 31 6 q 48 8 57 16 q 66 24 71 45 q 77 65 77 83 z"},"&":{"x_min":0,"x_max":427,"ha":427,"o":"m 117 412 q 102 467 94 512 q 86 557 86 591 q 86 663 122 708 q 149 742 186 742 q 216 742 239 713 q 271 672 271 614 q 271 577 256 542 q 240 507 199 461 l 210 427 q 258 276 312 147 q 356 239 356 316 q 356 332 353 337 q 352 340 349 340 l 344 337 q 329 326 312 326 q 292 326 279 340 q 267 354 267 380 q 267 410 280 426 q 294 441 313 441 q 336 441 351 422 q 369 396 369 335 q 369 229 320 130 l 328 113 q 346 75 358 63 q 370 52 381 52 q 390 52 396 61 q 405 72 405 96 q 405 103 406 104 q 408 106 411 106 q 415 106 417 104 q 418 102 418 94 q 418 49 393 21 q 368 -7 335 -7 q 315 -7 301 1 q 286 9 258 39 q 235 14 212 3 q 189 -7 161 -7 q 102 -7 60 42 q 19 90 19 185 q 19 250 42 303 q 66 357 117 412 z m 196 476 q 219 500 230 530 q 241 560 241 619 q 241 685 224 710 q 211 729 191 729 q 177 729 168 717 q 160 706 160 676 q 160 651 167 608 q 174 565 189 503 z m 121 396 q 103 382 94 363 q 85 343 85 320 q 85 271 108 196 q 125 140 151 87 q 169 49 183 37 q 197 25 211 25 q 221 25 229 30 q 237 35 251 50 q 215 118 189 182 q 164 246 132 357 z"},"_":{"x_min":0,"x_max":500,"ha":500,"o":"m 509 -216 l -8 -216 l -8 -175 l 509 -175 z"},"v":{"x_min":0,"x_max":255,"ha":255,"o":"m 21 511 l 6 511 q 4 511 2 513 q 0 515 0 518 q 0 521 1 522 q 4 524 6 524 l 123 524 q 125 524 127 522 q 129 520 129 518 q 129 515 128 513 q 125 511 123 511 l 105 511 l 149 132 l 200 458 q 201 463 201 470 q 201 500 176 512 q 169 515 169 519 q 169 521 171 522 q 172 524 175 524 l 239 524 q 242 524 244 523 q 245 521 245 520 q 245 515 238 512 q 227 507 223 500 q 216 489 212 462 l 149 41 q 144 8 141 4 q 138 0 128 0 l 90 0 q 84 0 81 4 q 80 7 75 41 z"},"O":{"x_min":0,"x_max":313,"ha":313,"o":"m 292 450 l 292 270 q 292 114 243 42 q 208 -7 157 -7 q 123 -7 93 18 q 64 42 47 91 q 21 168 21 263 l 21 474 q 21 622 70 693 q 104 742 154 742 q 179 742 199 731 q 220 720 236 699 q 252 678 265 643 q 278 608 283 570 q 292 506 292 450 z m 124 73 q 124 35 135 18 q 144 5 157 5 q 169 5 178 16 q 188 27 188 48 l 188 674 q 188 700 175 716 q 167 727 154 727 q 143 727 135 716 q 124 702 124 674 z"},"(":{"x_min":0,"x_max":192,"ha":192,"o":"m 104 666 l 104 77 q 104 37 115 23 q 126 10 151 7 q 156 7 158 5 q 160 3 160 0 q 160 -2 158 -4 q 155 -6 150 -6 q 125 -6 100 8 q 76 22 59 53 q 45 76 31 133 q 16 189 16 279 l 16 474 q 16 620 65 690 q 100 740 149 740 q 156 740 158 739 q 161 737 161 734 q 161 732 159 730 q 157 729 151 728 q 133 727 124 720 q 115 713 111 701 q 104 681 104 666 z"},"C":{"x_min":0,"x_max":281,"ha":281,"o":"m 262 740 l 262 450 q 262 447 260 445 q 258 442 255 442 q 252 442 250 444 q 248 447 248 450 l 248 476 q 248 538 234 600 q 216 681 184 715 q 172 728 152 728 q 139 728 131 718 q 121 705 121 679 l 121 52 q 121 28 130 18 q 139 7 154 7 q 174 7 194 25 q 215 42 226 71 q 248 131 248 205 l 248 285 q 248 290 250 292 q 252 295 255 295 q 257 295 259 293 q 262 290 262 285 l 262 205 q 262 91 220 34 q 190 -7 145 -7 q 111 -7 86 14 q 61 35 45 86 q 17 183 17 318 l 17 402 q 17 500 33 588 q 50 675 88 715 q 114 742 147 742 q 186 742 217 688 l 256 740 z"},"W":{"x_min":0,"x_max":483,"ha":483,"o":"m 33 722 l 10 722 q 4 725 4 728 q 4 731 10 734 l 161 734 q 164 734 165 733 q 167 731 167 728 q 167 725 165 723 q 164 722 161 722 l 135 722 l 181 229 l 228 677 l 223 722 l 199 722 q 196 722 195 723 q 193 725 193 728 q 193 731 195 733 q 196 734 199 734 l 352 734 q 357 731 357 728 q 357 725 352 722 l 324 722 l 371 229 l 418 667 q 419 674 419 680 q 419 697 414 707 q 409 717 400 721 l 385 723 q 382 724 382 728 q 382 731 388 734 l 469 734 q 474 731 474 728 q 474 726 473 724 q 472 722 469 722 q 456 720 446 707 q 433 689 430 662 l 365 54 q 360 11 356 4 q 354 0 347 0 l 312 0 q 305 0 301 6 l 295 60 l 233 620 l 175 54 q 170 7 168 5 q 165 0 156 0 l 121 0 q 115 0 112 4 q 110 7 106 48 z"},"A":{"x_min":0,"x_max":306,"ha":306,"o":"m 128 724 l 183 724 l 270 13 l 292 13 q 297 9 297 6 q 297 3 292 0 l 145 0 q 142 0 141 2 q 139 3 139 6 q 139 9 141 11 q 142 13 145 13 l 168 13 l 155 151 l 67 151 l 56 73 q 56 66 56 60 q 56 38 64 27 q 72 16 86 14 l 94 11 q 96 9 96 6 q 96 3 94 2 q 92 0 90 0 l 6 0 q 4 0 2 2 q 0 3 0 6 q 0 9 2 11 l 8 13 q 22 15 30 26 q 42 43 46 83 z m 116 542 l 68 164 l 154 164 z"},"f":{"x_min":0,"x_max":192,"ha":192,"o":"m 35 511 l 11 511 q 6 514 6 517 q 6 520 11 524 l 35 524 l 35 602 q 35 673 62 707 q 88 740 121 740 q 145 740 164 720 q 182 701 182 672 q 182 648 170 634 q 159 620 145 620 q 130 620 120 631 q 110 642 110 661 q 110 683 121 694 q 132 706 153 706 q 148 716 141 721 q 133 726 123 726 q 107 726 94 711 q 82 696 82 671 q 82 641 101 594 q 121 546 122 524 l 179 524 q 184 521 184 518 q 184 515 179 511 l 122 511 l 122 13 l 180 12 l 181 6 q 181 3 179 0 l 11 0 l 8 1 l 7 6 q 7 10 11 13 l 35 13 z"},"Q":{"x_min":0,"x_max":313,"ha":313,"o":"m 169 -4 q 161 -5 152 -5 q 123 -5 100 10 q 77 25 59 57 q 45 81 31 133 q 17 186 17 266 l 17 477 q 17 622 66 693 q 101 742 153 742 q 208 742 241 693 q 289 622 289 453 l 289 272 q 289 200 278 148 q 268 96 250 61 q 242 44 221 22 q 243 -7 261 -56 q 267 -73 272 -79 q 278 -86 287 -89 l 292 -91 l 293 -94 q 293 -97 287 -100 q 272 -108 249 -108 q 217 -108 198 -87 q 178 -65 169 -4 z m 184 58 l 184 684 q 184 708 174 720 q 167 729 154 729 q 141 729 133 719 q 123 704 123 675 l 123 50 q 141 63 156 63 q 167 63 180 59 z m 123 41 q 123 23 132 14 q 140 5 153 5 q 160 5 169 10 q 164 29 156 36 q 149 43 137 43 q 131 43 123 41 z"},"w":{"x_min":0,"x_max":419,"ha":419,"o":"m 17 511 l 6 511 l 3 513 q 1 515 1 518 q 1 521 6 524 l 127 524 q 132 521 132 518 q 132 515 127 511 l 103 511 l 149 148 l 192 404 l 178 511 l 166 511 q 163 511 162 513 q 161 515 161 518 q 161 521 162 522 q 163 524 166 524 l 289 524 q 292 524 293 522 q 294 521 294 518 q 294 515 293 513 q 292 511 289 511 l 263 511 l 311 154 l 360 458 q 363 471 363 481 q 363 493 357 500 q 352 506 336 511 q 333 512 331 513 q 330 515 330 517 q 330 520 336 524 l 405 524 l 407 522 l 408 517 q 408 515 408 514 q 407 513 405 512 q 377 502 367 431 l 304 30 q 301 7 297 3 q 295 0 289 0 l 253 0 q 250 0 247 4 q 245 8 242 28 l 197 369 l 149 60 q 142 13 136 4 q 133 0 127 0 l 91 0 q 87 0 84 4 q 83 7 76 60 z"},"-":{"x_min":0,"x_max":177,"ha":177,"o":"m 27 296 l 150 296 l 150 227 l 27 227 z"},"E":{"x_min":0,"x_max":304,"ha":304,"o":"m 41 722 l 10 722 q 5 726 5 728 q 5 731 10 734 l 287 734 l 287 462 q 284 458 281 458 q 278 458 277 459 q 276 461 275 473 q 272 554 250 624 q 228 694 208 712 q 197 722 171 722 l 141 722 l 141 378 q 169 381 187 408 q 210 443 210 517 l 210 555 q 210 558 212 559 q 213 561 216 561 q 218 561 220 559 q 221 558 221 555 l 221 192 q 221 190 220 188 q 218 187 216 187 q 213 187 212 188 q 210 190 210 192 l 210 228 q 210 300 184 342 q 168 367 151 367 q 146 367 144 364 q 141 360 141 353 l 141 13 l 157 13 q 177 13 196 28 q 216 42 233 79 q 250 116 259 160 q 274 230 274 270 l 274 302 q 278 307 281 307 q 284 307 285 306 q 287 304 287 302 l 287 0 l 10 0 q 6 0 4 2 q 2 4 2 6 q 2 9 4 11 q 6 13 10 13 l 41 13 z"},"s":{"x_min":0,"x_max":229,"ha":229,"o":"m 61 33 q 52 25 39 7 q 29 -6 24 -6 q 22 -6 21 -4 q 19 -3 19 0 l 19 229 q 19 232 21 234 q 22 236 25 236 q 28 236 29 234 q 31 232 32 218 q 38 124 64 60 q 83 14 108 14 q 121 14 131 27 q 141 39 141 62 q 141 89 130 128 q 118 167 81 248 q 44 330 34 366 q 23 402 23 429 q 23 474 48 502 q 73 530 105 530 q 135 530 162 503 q 169 508 184 522 q 192 529 195 529 q 197 529 199 528 q 200 526 200 524 l 200 318 q 200 314 198 312 q 196 311 194 311 q 191 311 189 313 q 188 315 187 328 q 181 418 160 474 q 145 513 120 513 q 106 513 97 503 q 88 493 88 475 q 88 431 146 314 q 185 237 199 191 q 213 146 213 110 q 213 57 186 26 q 159 -6 123 -6 q 104 -6 90 3 q 76 11 61 33 z"},">":{"x_min":0,"x_max":469,"ha":469,"o":"m 420 349 l 48 193 l 48 242 l 359 370 l 48 497 l 48 546 l 420 389 z"},"l":{"x_min":0,"x_max":171,"ha":171,"o":"m 125 734 l 125 13 l 144 13 q 146 13 148 11 q 149 9 149 6 q 149 3 148 2 q 146 0 144 0 l 16 0 q 14 0 12 2 q 10 3 10 6 q 10 9 12 11 q 14 13 16 13 l 37 13 l 37 722 l 16 722 q 13 722 11 724 q 9 726 9 728 q 9 731 11 732 q 13 734 16 734 z"},"8":{"x_min":0,"x_max":281,"ha":281,"o":"m 106 357 l 68 462 q 52 508 46 539 q 40 570 40 598 q 40 665 72 703 q 104 740 148 740 q 189 740 219 706 q 248 672 248 608 q 248 571 235 533 q 222 495 184 428 q 192 402 205 373 q 242 281 253 238 q 265 194 265 156 q 265 78 228 36 q 190 -6 135 -6 q 85 -6 53 31 q 21 67 21 137 q 21 181 39 229 q 56 278 106 357 z m 176 442 q 215 514 215 614 q 215 679 197 704 q 179 728 152 728 q 131 728 119 714 q 106 700 106 673 q 106 607 176 442 z m 110 341 q 88 304 79 271 q 61 210 61 143 q 61 67 85 31 q 104 5 129 5 q 151 5 166 24 q 181 42 181 84 q 181 126 166 184 q 151 241 110 341 z"},"\\":{"x_min":0,"x_max":223,"ha":223,"o":"m 35 741 l 211 -6 l 186 -6 l 10 741 z"},"e":{"x_min":0,"x_max":260,"ha":260,"o":"m 101 260 l 101 79 q 101 36 110 22 q 118 12 134 12 q 162 12 183 43 q 219 95 221 184 q 222 213 224 217 q 226 221 230 221 q 233 221 235 218 q 238 214 238 200 q 238 113 207 53 q 177 -6 125 -6 q 77 -6 45 40 q 13 85 13 238 l 13 310 q 13 426 56 487 q 87 530 130 530 q 182 530 210 475 q 238 419 238 340 l 238 260 z m 151 273 l 151 481 q 151 501 144 512 q 138 519 127 519 q 117 519 109 510 q 101 500 101 481 l 101 273 z"},"b":{"x_min":0,"x_max":283,"ha":283,"o":"m 31 722 l 12 722 q 10 722 9 724 q 7 725 7 728 q 7 731 9 733 q 10 734 12 734 l 119 734 l 119 493 q 140 530 169 530 q 188 530 206 514 q 224 498 234 468 q 257 405 257 318 l 257 215 q 257 91 218 33 q 191 -6 153 -6 q 130 -6 115 10 q 99 25 83 83 q 65 42 43 3 q 38 -6 35 -6 q 33 -6 32 -4 q 31 -2 31 4 z m 168 480 q 168 495 163 501 q 159 506 151 506 q 139 506 131 494 q 119 476 119 429 l 119 29 q 119 22 127 14 q 133 8 142 8 q 153 8 160 18 q 168 31 168 63 z"},"%":{"x_min":0,"x_max":356,"ha":356,"o":"m 147 697 q 163 652 163 558 q 163 440 139 402 q 124 377 94 377 q 65 377 47 403 q 23 440 23 537 l 23 614 q 23 681 48 715 q 66 740 94 740 q 120 740 141 712 q 164 698 199 698 q 249 698 307 733 q 319 740 325 740 q 329 740 331 739 q 333 737 333 735 q 333 732 331 729 l 330 725 l 42 -5 l 15 -5 l 299 716 q 247 686 204 686 q 178 686 147 697 z m 76 415 q 76 401 81 395 q 85 389 93 389 q 100 389 105 395 q 109 401 109 415 l 109 705 q 109 718 104 725 q 99 730 92 730 q 85 730 81 724 q 76 719 76 705 z m 190 149 l 190 233 q 190 300 215 335 q 235 362 260 362 q 286 362 305 336 q 330 301 330 226 l 330 120 q 330 56 303 20 q 284 -6 258 -6 q 239 -6 225 7 q 210 20 202 50 q 190 98 190 149 z m 242 34 q 242 19 246 14 q 250 8 258 8 q 265 8 270 14 q 276 22 276 34 l 276 329 q 276 337 271 344 q 266 349 259 349 q 252 349 247 343 q 242 338 242 329 z"},"m":{"x_min":0,"x_max":431,"ha":431,"o":"m 120 13 l 131 12 q 134 10 134 6 q 134 3 129 0 l 13 0 q 8 3 8 6 q 8 9 13 13 l 32 13 l 32 511 l 13 511 q 8 514 8 517 q 8 521 13 524 l 120 524 l 120 485 q 137 511 152 521 q 167 530 190 530 q 217 530 231 519 q 245 508 255 478 q 271 508 285 519 q 300 530 325 530 q 360 530 376 513 q 393 497 393 467 l 393 13 l 409 13 q 412 13 414 11 q 416 9 416 6 l 414 2 q 412 0 409 0 l 295 0 q 291 3 291 6 q 291 9 295 13 l 306 13 l 306 485 q 306 493 302 498 q 297 503 292 503 q 282 503 271 487 q 255 461 255 415 l 255 13 l 266 13 l 269 11 q 270 9 270 6 q 270 3 266 0 l 156 0 q 152 3 152 6 q 152 10 156 13 l 169 13 l 169 478 q 169 491 165 496 q 160 502 154 502 q 145 502 136 490 q 120 464 120 434 z"},"#":{"x_min":0,"x_max":667,"ha":667,"o":"m 43 475 l 202 475 l 244 672 l 304 672 l 262 475 l 467 475 l 509 672 l 569 672 l 527 475 l 623 475 l 623 415 l 515 415 l 478 234 l 623 234 l 623 174 l 466 174 l 424 -22 l 364 -22 l 406 174 l 200 174 l 158 -22 l 98 -22 l 140 174 l 43 174 l 43 234 l 152 234 l 190 415 l 43 415 z m 250 415 l 212 234 l 418 234 l 455 415 z"},",":{"x_min":0,"x_max":135,"ha":135,"o":"m 80 -10 q 71 -12 64 -12 q 47 -12 34 3 q 21 18 21 44 q 21 73 35 91 q 49 108 66 108 q 85 108 100 89 q 115 71 115 38 q 115 -34 64 -106 q 38 -143 29 -143 l 24 -138 q 24 -135 31 -125 q 59 -91 69 -68 q 79 -44 80 -10 z"},"n":{"x_min":0,"x_max":296,"ha":296,"o":"m 35 511 l 14 511 l 11 512 q 9 514 9 518 q 9 521 14 524 l 121 524 l 121 484 q 138 510 154 520 q 171 530 194 530 q 226 530 239 514 q 258 492 258 450 l 258 13 l 274 13 q 277 13 279 11 q 280 9 280 6 q 280 3 279 2 q 277 0 274 0 l 161 0 q 159 0 157 2 q 155 3 155 6 q 155 9 157 11 q 159 13 161 13 l 171 13 l 171 470 q 171 485 167 490 q 163 495 156 495 q 144 495 134 481 q 121 460 121 412 l 121 13 l 133 13 q 138 9 138 6 q 138 3 133 0 l 14 0 q 9 3 9 6 q 9 9 14 13 l 35 13 z"},"h":{"x_min":0,"x_max":295,"ha":295,"o":"m 122 734 l 122 484 q 142 511 157 520 q 173 530 194 530 q 227 530 240 513 q 260 490 260 441 l 260 13 l 277 13 q 282 9 282 6 q 282 3 277 0 l 161 0 q 157 3 157 6 q 157 10 161 13 l 172 13 l 172 467 q 172 484 167 491 q 164 496 157 496 q 146 496 136 482 q 122 462 122 427 l 122 13 l 135 13 q 140 9 140 6 q 140 3 135 0 l 14 0 l 12 1 l 10 6 q 10 10 14 13 l 36 13 l 36 722 l 14 722 q 9 725 9 728 q 9 731 14 734 z"},"z":{"x_min":0,"x_max":260,"ha":260,"o":"m 41 524 l 244 524 l 99 13 l 132 13 q 151 13 170 33 q 197 61 213 117 q 229 174 229 191 l 229 215 q 232 220 236 220 q 240 220 244 215 l 244 0 l 8 0 l 153 511 l 132 511 q 116 511 100 493 q 83 476 68 425 q 59 392 54 354 l 52 324 q 51 320 47 320 q 44 320 42 322 q 41 324 41 327 z"},"B":{"x_min":0,"x_max":325,"ha":325,"o":"m 38 13 l 38 722 l 5 722 q 0 726 0 729 q 0 731 5 734 l 149 734 q 216 734 258 688 q 300 643 300 560 q 300 509 286 472 q 271 435 241 410 q 222 395 184 380 q 224 366 243 351 q 273 326 289 290 q 304 255 304 203 q 304 136 281 84 q 266 48 230 24 q 194 0 145 0 l 5 0 q 0 3 0 6 q 0 9 5 13 z m 138 722 l 138 386 l 164 386 q 182 386 190 395 q 199 404 199 424 l 199 679 q 199 704 190 713 q 181 722 156 722 z m 138 374 l 138 13 l 154 13 q 174 13 187 24 q 199 36 199 56 l 199 340 q 199 358 192 366 q 185 374 169 374 z"},"K":{"x_min":0,"x_max":379,"ha":379,"o":"m 46 722 l 17 722 q 14 722 12 723 q 10 725 10 728 q 10 731 12 733 q 14 734 17 734 l 177 734 q 182 731 182 728 q 182 725 177 722 l 146 722 l 146 366 l 258 637 q 268 661 268 681 q 268 698 262 708 q 255 717 244 721 l 225 722 q 222 724 222 728 q 222 731 223 733 q 225 734 228 734 l 348 734 q 350 734 352 733 q 354 731 354 728 q 354 724 351 723 l 327 720 q 310 715 298 696 q 285 678 262 621 l 212 500 l 340 13 l 362 13 q 365 13 366 11 q 368 9 368 6 q 368 3 366 2 q 365 0 362 0 l 207 0 q 203 3 203 6 q 203 10 207 13 l 239 13 l 146 353 l 146 13 l 177 13 q 180 13 182 11 q 184 9 184 6 q 184 3 182 2 q 180 0 177 0 l 17 0 l 15 1 q 13 3 13 6 q 13 10 17 13 l 46 13 z"},"R":{"x_min":0,"x_max":377,"ha":377,"o":"m 40 722 l 11 722 q 6 725 6 729 q 6 731 11 734 l 165 734 q 222 734 264 686 q 306 637 306 553 q 306 505 290 467 q 274 430 242 405 q 223 391 183 377 q 228 364 246 352 q 275 331 290 302 q 304 273 304 228 l 304 49 q 304 37 308 32 q 312 27 318 27 q 328 27 336 39 q 349 59 352 109 q 353 118 355 121 q 357 124 359 124 q 362 124 364 121 q 367 117 367 106 q 367 52 341 22 q 314 -7 275 -7 q 240 -7 222 11 q 204 29 204 62 l 204 320 q 204 354 187 365 q 177 371 141 371 l 141 13 l 165 13 q 169 13 171 11 q 173 9 173 6 q 173 4 171 2 q 169 0 165 0 l 11 0 q 8 0 6 2 q 4 3 4 6 q 4 9 6 11 q 8 13 11 13 l 40 13 z m 141 722 l 141 384 l 165 384 q 182 384 193 396 q 204 408 204 430 l 204 684 q 204 706 196 714 q 188 722 165 722 z"},"T":{"x_min":0,"x_max":344,"ha":344,"o":"m 120 722 l 109 722 q 99 722 91 715 q 79 705 68 670 q 50 614 37 535 q 24 457 24 436 l 24 425 q 24 421 22 419 q 21 417 18 417 q 15 417 14 418 q 11 421 11 425 l 11 734 l 329 734 l 329 425 q 329 421 327 419 q 325 417 322 417 q 319 417 317 419 q 315 421 315 425 l 315 444 q 315 472 302 548 q 288 624 270 675 q 258 708 250 715 q 243 722 236 722 l 220 722 l 220 13 l 258 13 q 264 9 264 6 q 264 3 258 0 l 77 0 q 75 0 73 2 q 72 3 72 6 q 72 9 73 11 q 75 13 77 13 l 120 13 z"},"P":{"x_min":0,"x_max":325,"ha":325,"o":"m 42 722 l 10 722 q 8 722 6 724 q 4 726 4 728 q 4 731 6 733 q 8 734 10 734 l 155 734 q 189 734 221 718 q 244 706 263 680 q 283 654 293 629 q 306 594 306 549 l 306 498 q 306 443 286 403 q 266 363 232 340 q 198 316 161 316 l 143 316 l 143 13 l 172 13 q 175 13 177 11 q 178 9 178 6 q 178 3 177 2 q 175 0 172 0 l 10 0 q 8 0 6 2 q 4 3 4 6 q 4 9 6 11 q 8 13 10 13 l 42 13 z m 143 722 l 143 329 l 161 329 q 180 329 191 341 q 203 353 203 374 l 203 673 q 203 698 192 712 q 184 722 168 722 z"},"|":{"x_min":0,"x_max":281,"ha":281,"o":"m 117 734 l 165 734 l 165 -97 l 117 -97 z"},"t":{"x_min":0,"x_max":224,"ha":224,"o":"m 43 511 l 21 511 q 16 511 14 513 q 11 515 11 518 q 11 521 16 525 q 57 557 75 589 q 94 620 108 662 q 118 692 119 704 l 120 727 q 121 729 124 729 q 127 729 129 728 q 130 726 130 724 l 130 524 l 203 524 q 207 524 209 522 q 211 520 211 518 q 211 515 209 513 q 207 511 203 511 l 130 511 l 130 57 q 130 36 136 28 q 140 22 148 22 q 165 22 177 41 q 196 69 196 128 l 196 199 q 196 206 199 210 q 201 212 204 212 q 207 212 209 210 q 212 206 212 199 l 212 145 q 212 62 186 28 q 160 -6 121 -6 q 84 -6 67 14 q 43 41 43 90 z"},"M":{"x_min":0,"x_max":410,"ha":410,"o":"m 42 722 l 14 722 q 11 722 10 724 q 8 726 8 728 q 8 731 10 733 q 11 734 14 734 l 146 734 l 193 287 l 253 734 l 386 734 q 389 734 391 733 q 393 731 393 729 q 393 726 391 724 q 389 722 386 722 l 354 722 l 354 13 l 386 13 q 387 13 388 12 q 389 9 389 6 q 389 3 388 1 q 387 0 386 0 l 225 0 q 223 0 221 2 q 220 3 220 6 q 220 9 221 11 q 223 13 225 13 l 259 13 l 259 690 l 173 17 q 171 4 169 2 q 168 0 165 0 l 133 0 q 130 0 129 2 q 127 4 126 17 l 56 684 l 56 64 q 56 39 61 29 q 66 19 79 14 l 101 12 q 103 11 103 6 q 103 2 102 1 q 101 0 96 0 l 9 0 q 7 0 6 1 q 5 3 5 5 q 5 8 6 9 q 7 10 15 13 q 30 19 35 28 q 42 41 42 64 z"},"g":{"x_min":0,"x_max":302,"ha":302,"o":"m 99 108 q 69 136 56 174 q 37 228 37 313 q 37 435 76 490 q 104 530 150 530 q 179 530 203 509 q 214 532 228 544 q 242 555 258 555 q 275 555 285 544 q 296 532 296 511 q 296 493 289 484 q 281 475 272 475 q 262 475 255 482 q 249 489 249 503 l 249 508 q 250 513 250 516 q 250 524 247 527 q 244 530 239 530 q 232 530 226 522 q 219 514 212 498 q 259 439 259 306 q 259 190 219 135 q 190 94 148 94 q 142 94 132 94 q 126 95 102 95 q 72 95 59 86 q 47 77 47 69 q 47 61 54 56 q 63 49 84 49 l 162 49 q 219 49 245 23 q 271 -2 271 -56 q 271 -115 237 -148 q 202 -182 140 -182 q 78 -182 45 -156 q 13 -129 13 -96 q 13 -75 23 -56 q 34 -38 54 -22 q 38 -12 30 2 q 22 17 22 35 q 22 67 39 85 q 56 102 99 108 z m 171 480 q 171 504 165 512 q 159 520 147 520 q 137 520 130 511 q 123 502 123 480 l 123 156 q 123 127 132 115 q 138 106 149 106 q 159 106 165 114 q 171 122 171 141 z m 63 -30 q 50 -42 44 -56 q 37 -69 37 -82 q 37 -107 65 -130 q 93 -152 145 -152 q 197 -152 230 -126 q 255 -105 255 -78 q 255 -58 242 -48 q 223 -35 167 -35 l 147 -35 q 98 -35 63 -30 z"},"j":{"x_min":0,"x_max":167,"ha":167,"o":"m 83 740 q 105 740 120 725 q 134 710 134 689 q 134 668 119 653 q 104 637 82 637 q 61 637 45 652 q 30 667 30 689 q 30 710 45 725 q 61 740 83 740 z m 42 511 l 16 511 q 12 511 10 513 q 8 515 8 518 q 8 520 10 521 q 13 524 16 524 l 129 524 l 129 -14 q 129 -104 96 -149 q 73 -182 39 -182 q 13 -182 -4 -164 q -21 -146 -21 -117 q -21 -93 -10 -79 q 2 -65 17 -65 q 31 -65 41 -75 q 50 -86 50 -103 q 50 -123 39 -134 q 28 -146 11 -146 q 7 -146 2 -145 q 5 -157 13 -163 q 21 -169 36 -169 q 57 -169 69 -155 q 82 -141 82 -112 q 82 -88 72 -60 q 58 -19 45 5 q 42 11 42 21 z"},"i":{"x_min":0,"x_max":160,"ha":160,"o":"m 25 689 q 25 710 40 725 q 55 740 76 740 q 98 740 113 725 q 128 710 128 689 q 128 667 113 652 q 98 637 76 637 q 55 637 40 652 q 25 667 25 689 z m 32 511 l 13 511 q 10 511 9 513 q 7 515 7 518 q 7 521 9 522 q 10 524 13 524 l 119 524 l 119 13 l 140 13 q 143 13 145 11 q 146 9 146 6 q 146 3 145 2 q 143 0 140 0 l 13 0 q 8 3 8 6 q 8 10 13 13 l 32 13 z"},"y":{"x_min":0,"x_max":254,"ha":254,"o":"m 23 511 l 1 511 q -4 514 -4 518 q -4 521 1 524 l 132 524 q 134 524 136 522 q 138 520 138 518 q 138 515 136 513 q 134 511 132 511 l 109 511 l 153 136 l 195 431 q 198 447 198 461 q 198 488 191 498 q 184 508 170 510 l 163 512 q 162 514 162 517 q 162 521 163 522 q 164 524 167 524 l 240 524 q 243 524 245 522 q 247 520 247 517 q 247 515 245 513 q 244 512 240 511 q 233 509 229 501 q 215 478 209 443 l 137 -71 q 129 -126 104 -154 q 78 -182 52 -182 q 31 -182 15 -163 q -1 -145 -1 -115 q -1 -90 11 -76 q 23 -62 40 -62 q 56 -62 68 -75 q 80 -87 80 -106 q 80 -135 55 -151 q 48 -155 48 -160 q 48 -163 51 -165 q 53 -167 59 -167 q 77 -167 94 -147 q 117 -120 126 -60 l 137 0 l 84 0 z"},"@":{"x_min":0,"x_max":917,"ha":917,"o":"m 660 547 l 596 330 q 570 241 570 217 q 570 204 580 194 q 589 184 603 184 q 633 184 677 217 q 722 249 753 314 q 784 379 784 451 q 784 526 749 588 q 714 650 652 683 q 589 716 511 716 q 417 716 331 667 q 246 617 195 521 q 144 425 144 318 q 144 172 237 79 q 330 -15 474 -15 q 589 -15 681 47 q 773 109 817 218 l 842 218 q 798 99 699 30 q 601 -40 474 -40 q 312 -40 207 66 q 102 171 102 334 q 102 443 154 539 q 207 635 301 688 q 396 741 501 741 q 592 741 663 705 q 734 669 771 601 q 808 532 808 452 q 808 369 771 294 q 733 220 678 187 q 624 154 565 154 q 528 154 509 171 q 490 189 490 218 q 490 232 499 280 q 444 204 409 178 q 375 153 342 153 q 306 153 288 183 q 269 212 269 249 q 269 320 309 397 q 349 474 413 520 q 459 554 497 554 q 521 554 538 539 q 555 524 561 492 l 575 540 z m 543 467 q 543 498 531 513 q 519 529 502 529 q 479 529 453 500 q 414 457 381 371 q 356 306 356 267 q 356 244 368 231 q 379 218 393 218 q 408 218 431 234 q 455 250 481 289 q 508 327 521 364 q 543 426 543 467 z"},".":{"x_min":0,"x_max":135,"ha":135,"o":"m 19 51 q 19 81 31 96 q 44 111 63 111 q 82 111 94 97 q 107 83 107 56 q 107 26 93 10 q 79 -6 62 -6 q 46 -6 32 10 q 19 25 19 51 z"},"p":{"x_min":0,"x_max":283,"ha":283,"o":"m 32 511 l 13 511 q 8 514 8 518 q 8 521 13 524 l 113 524 l 113 483 q 128 512 139 521 q 150 530 165 530 q 199 530 221 492 q 258 431 258 273 q 258 118 233 56 q 208 -6 165 -6 q 151 -6 141 1 q 131 8 120 28 l 120 -170 l 146 -170 q 149 -170 151 -172 q 153 -173 153 -176 l 152 -180 q 149 -182 146 -182 l 13 -182 q 11 -182 9 -180 q 8 -178 8 -176 q 8 -173 9 -171 q 11 -170 13 -170 l 32 -170 z m 120 91 q 120 50 132 32 q 140 20 151 20 q 159 20 164 26 q 170 35 170 58 l 170 475 q 170 494 165 501 q 159 509 152 509 q 142 509 133 496 q 120 477 120 438 z"},"X":{"x_min":0,"x_max":358,"ha":358,"o":"m 38 722 l 15 722 q 13 722 11 723 q 9 725 9 728 q 9 731 11 733 q 13 734 15 734 l 179 734 q 181 734 183 733 q 185 731 185 728 q 185 725 183 723 q 181 722 179 722 l 140 722 l 207 460 l 267 653 q 271 670 271 684 q 271 701 266 709 q 260 718 248 720 l 226 722 q 223 724 223 728 q 223 731 228 734 l 338 734 q 343 731 343 728 q 343 724 341 723 l 326 721 q 314 718 302 705 q 291 692 286 676 l 212 438 l 320 13 l 343 13 q 348 9 348 6 q 348 3 347 2 q 345 0 343 0 l 187 0 q 184 0 182 2 q 181 3 181 6 q 181 9 182 11 q 184 13 187 13 l 220 13 l 146 305 l 77 80 q 73 65 73 49 q 73 34 82 25 q 96 13 108 13 l 121 13 q 124 13 125 11 q 127 9 127 6 q 127 3 125 2 q 124 0 121 0 l 6 0 q 0 3 0 6 q 0 9 2 11 q 3 12 6 13 q 46 20 66 84 l 140 328 z"},"*":{"x_min":0,"x_max":250,"ha":250,"o":"m 113 635 q 114 640 114 643 q 114 660 105 688 q 100 708 100 717 q 100 728 105 734 q 110 740 119 740 q 127 740 133 734 q 138 728 138 717 q 138 709 134 693 q 124 657 124 641 l 124 635 q 145 646 167 669 q 189 691 202 691 q 210 691 216 686 q 221 680 221 671 q 221 662 215 656 q 208 650 184 645 q 151 639 130 626 q 155 612 187 605 q 209 600 215 594 q 221 589 221 581 q 221 571 216 566 q 210 561 203 561 q 188 561 166 584 q 143 607 124 615 l 124 606 q 124 588 131 566 q 138 544 138 533 q 138 521 133 516 q 128 511 120 511 q 110 511 104 517 q 99 522 99 533 q 99 540 103 551 q 113 588 113 610 l 113 615 q 94 608 71 583 q 48 559 36 559 q 28 559 22 565 q 16 571 16 580 q 16 588 22 594 q 28 600 52 604 q 84 612 105 626 q 84 638 52 645 q 28 650 22 656 q 16 661 16 670 q 16 680 21 686 q 27 691 35 691 q 43 691 51 687 q 58 683 71 667 q 85 651 93 646 q 101 640 113 635 z"},"Y":{"x_min":0,"x_max":321,"ha":321,"o":"m 105 364 l 25 722 l 6 722 q 3 722 2 723 q 0 725 0 728 q 0 731 2 733 q 3 734 6 734 l 165 734 q 170 731 170 729 q 170 725 165 722 l 125 722 l 201 388 l 258 648 q 261 663 261 675 q 261 694 255 705 q 250 717 239 721 l 223 723 q 220 724 220 728 q 220 731 226 734 l 305 734 q 310 734 312 733 l 313 731 q 313 728 308 724 q 283 709 274 667 l 207 364 l 207 13 l 245 13 q 248 13 249 11 q 251 9 251 6 q 251 3 249 2 q 248 0 245 0 l 65 0 q 62 0 61 2 q 60 3 60 6 q 60 9 61 11 q 62 13 65 13 l 105 13 z"},"c":{"x_min":0,"x_max":250,"ha":250,"o":"m 185 490 q 200 502 211 516 q 222 530 226 530 l 229 529 l 229 524 l 229 315 q 229 312 228 310 q 226 308 223 308 q 220 308 218 310 q 217 312 215 334 q 212 371 196 427 q 180 483 164 501 q 148 518 130 518 q 119 518 114 512 q 109 506 109 486 l 109 55 q 109 29 117 19 q 125 9 138 9 q 156 9 172 23 q 188 38 197 65 q 217 122 217 196 l 217 223 q 217 230 219 233 l 223 236 q 226 236 227 233 q 229 230 229 223 l 229 191 q 229 82 193 30 q 168 -6 129 -6 q 86 -6 59 33 q 23 84 23 212 l 23 305 q 23 432 62 490 q 89 530 128 530 q 163 530 185 490 z"},"!":{"x_min":0,"x_max":156,"ha":156,"o":"m 67 193 l 19 628 q 15 662 15 666 q 15 703 32 721 q 49 740 74 740 q 98 740 115 721 q 131 703 131 667 q 131 656 128 628 l 80 193 q 79 189 77 187 l 73 185 q 71 185 69 187 q 67 189 67 193 z m 71 111 q 90 111 104 95 q 117 80 117 53 q 117 25 103 10 q 89 -6 71 -6 q 53 -6 40 8 q 28 22 28 49 q 28 80 41 95 q 53 111 71 111 z"},"/":{"x_min":0,"x_max":223,"ha":223,"o":"m 187 741 l 211 741 l 35 -6 l 10 -6 z"},"[":{"x_min":0,"x_max":200,"ha":200,"o":"m 30 734 l 167 734 q 170 734 171 733 q 173 731 173 729 q 173 726 171 724 q 170 723 167 723 l 117 723 l 117 14 l 167 14 l 170 13 q 172 11 172 8 q 172 3 167 0 l 30 0 z"},"6":{"x_min":0,"x_max":281,"ha":281,"o":"m 117 400 q 135 425 148 433 q 161 441 178 441 q 216 441 240 395 q 264 349 264 273 l 264 191 q 264 94 220 38 q 187 -6 142 -6 q 96 -6 64 39 q 21 103 21 239 l 21 498 q 21 633 64 695 q 97 741 147 741 q 185 741 217 704 q 248 667 248 609 q 248 569 233 550 q 217 530 198 530 q 177 530 161 549 q 146 568 146 603 q 146 638 160 655 q 175 672 195 672 q 198 672 204 671 q 208 670 210 670 q 214 670 216 671 q 217 673 217 676 q 217 692 196 712 q 174 731 151 731 q 136 731 126 721 q 117 711 117 695 z m 167 381 q 167 400 161 408 q 157 414 150 414 q 136 414 127 395 q 117 375 117 357 l 117 44 q 117 25 125 15 q 131 7 142 7 q 152 7 159 16 q 167 25 167 44 z"},"r":{"x_min":0,"x_max":252,"ha":252,"o":"m 35 511 l 15 511 q 12 511 10 513 q 8 515 8 518 q 8 521 10 522 q 12 524 15 524 l 121 524 l 121 459 q 138 503 152 517 q 167 530 183 530 q 205 530 222 508 q 245 479 245 437 q 245 400 230 381 q 215 362 197 362 q 182 362 172 375 q 159 392 159 424 q 159 455 178 484 q 187 499 187 504 q 187 508 184 511 q 180 515 175 515 q 166 515 158 506 q 144 491 132 453 q 121 415 121 366 l 121 13 l 146 13 q 149 13 151 11 q 153 9 153 6 l 152 2 q 149 0 146 0 l 15 0 q 12 0 10 2 q 9 3 9 6 q 9 9 10 11 q 12 13 15 13 l 35 13 z"},"2":{"x_min":0,"x_max":281,"ha":281,"o":"m 12 0 l 12 22 q 12 59 20 104 q 26 137 38 162 q 50 187 97 251 q 145 315 153 340 q 164 374 164 450 l 164 660 q 164 701 156 713 q 147 725 131 725 q 96 725 67 687 q 26 633 26 558 q 26 549 28 546 q 29 544 32 544 q 36 544 45 550 q 62 561 75 561 q 95 561 110 542 q 125 523 125 487 q 125 452 110 434 q 95 417 73 417 q 49 417 33 438 q 12 467 12 532 q 12 616 46 678 q 81 740 144 740 q 190 740 226 694 q 261 647 261 540 q 261 454 242 406 q 223 359 167 302 q 110 244 87 214 q 63 184 48 147 q 39 125 33 87 l 244 87 l 250 219 q 250 222 254 225 l 258 224 l 259 219 l 250 0 z"},"{":{"x_min":0,"x_max":260,"ha":260,"o":"m 258 8 l 258 -6 q 183 8 147 37 q 90 85 90 154 q 90 173 102 222 q 110 258 110 276 q 110 303 88 325 q 66 347 8 359 l 8 375 q 65 387 88 409 q 110 431 110 457 q 110 468 99 523 q 90 566 90 585 q 90 622 112 656 q 133 691 169 711 q 205 731 258 740 l 258 727 q 197 709 177 687 q 157 665 157 637 q 157 615 169 557 q 177 521 177 505 q 177 479 161 451 q 146 422 115 401 q 93 386 45 368 q 88 352 108 339 q 141 317 159 287 q 177 258 177 229 q 177 207 164 149 q 157 116 157 103 q 157 70 177 48 q 197 26 258 8 z"},"9":{"x_min":0,"x_max":281,"ha":281,"o":"m 166 340 q 165 338 163 335 q 140 295 106 295 q 73 295 49 331 q 19 377 19 498 q 19 617 51 679 q 83 740 142 740 q 200 740 231 675 q 262 610 262 503 l 262 242 q 262 104 217 39 q 185 -6 133 -6 q 95 -6 68 26 q 33 67 33 126 q 33 166 49 186 q 65 207 84 207 q 104 207 120 188 q 135 169 135 134 q 135 100 120 83 q 105 65 85 65 q 80 65 73 66 q 69 67 67 67 q 65 67 64 66 q 63 64 63 62 q 63 45 84 25 q 105 6 131 6 q 148 6 157 16 q 166 26 166 49 z m 166 697 q 166 710 156 722 q 150 729 140 729 q 129 729 122 720 q 115 712 115 697 l 115 365 q 115 335 119 329 q 124 322 131 322 q 141 322 150 335 q 166 357 166 383 z"}," ":{"x_min":0,"x_max":141,"ha":141,"o":""},"I":{"x_min":0,"x_max":192,"ha":192,"o":"m 46 722 l 17 722 q 15 722 13 724 q 12 726 12 728 q 12 731 13 733 q 15 734 17 734 l 176 734 q 178 734 180 733 q 182 731 182 729 q 182 726 180 724 q 178 722 176 722 l 146 722 l 146 13 l 176 13 q 181 9 181 6 q 181 3 176 0 l 13 0 q 8 3 8 6 q 8 9 13 13 l 46 13 z"},"H":{"x_min":0,"x_max":358,"ha":358,"o":"m 45 13 l 45 722 l 13 722 q 8 726 8 729 q 8 731 13 734 l 162 734 q 167 731 167 729 q 167 726 162 722 l 146 722 l 146 388 l 208 388 l 208 722 l 188 722 q 182 726 182 729 q 182 731 188 734 l 338 734 q 344 731 344 729 q 344 726 338 722 l 309 722 l 309 13 l 338 13 q 341 13 343 11 q 345 9 345 6 q 345 3 343 2 q 341 0 338 0 l 192 0 q 190 0 188 2 q 187 3 187 6 q 187 9 188 11 q 190 13 192 13 l 208 13 l 208 376 l 146 376 l 146 13 l 165 13 q 167 13 169 11 q 171 9 171 6 q 171 3 169 2 q 167 0 165 0 l 13 0 q 8 3 8 6 q 8 9 13 13 z"},"4":{"x_min":0,"x_max":281,"ha":281,"o":"m 99 0 q 96 0 94 2 q 93 4 93 6 q 93 9 94 11 q 96 13 99 13 l 133 13 l 133 207 l 23 207 l 176 727 q 178 731 180 733 q 182 734 185 734 l 214 734 q 218 734 221 732 q 223 730 223 727 l 223 218 l 275 218 q 278 218 280 216 q 282 214 282 212 q 282 210 280 208 q 278 207 275 207 l 223 207 l 223 13 l 253 13 q 256 13 258 11 q 260 9 260 6 q 260 3 258 2 q 256 0 253 0 z m 133 527 l 42 218 l 133 218 z"},"~":{"x_min":0,"x_max":469,"ha":469,"o":"m 401 279 l 419 279 q 418 229 393 202 q 367 175 331 175 q 313 175 294 180 q 275 186 203 216 q 151 237 129 237 q 105 237 90 222 q 74 208 68 175 l 50 175 q 53 228 77 254 q 101 279 135 279 q 169 279 266 238 q 317 216 339 216 q 364 216 381 232 q 398 248 401 279 z"},"D":{"x_min":0,"x_max":325,"ha":325,"o":"m 38 13 l 38 722 l 7 722 q 3 722 2 724 q 0 726 0 729 q 0 731 2 733 q 3 734 7 734 l 133 734 q 191 734 228 708 q 265 682 282 624 q 304 546 304 458 l 304 277 q 304 186 282 112 q 270 70 250 47 q 230 24 203 12 q 175 0 133 0 l 7 0 q 3 0 2 2 q 0 3 0 6 q 0 10 2 11 q 3 13 7 13 z m 139 13 l 150 13 q 180 13 189 24 q 198 34 198 78 l 198 668 q 198 700 189 711 q 180 722 162 722 l 139 722 z"},"^":{"x_min":0,"x_max":581,"ha":581,"o":"m 72 325 l 272 676 l 312 676 l 510 325 l 432 325 l 288 575 l 146 325 z"},"0":{"x_min":0,"x_max":281,"ha":281,"o":"m 17 234 l 17 495 q 17 634 61 696 q 91 740 140 740 q 201 740 233 674 q 265 608 265 490 l 265 234 q 265 101 221 39 q 189 -6 140 -6 q 112 -6 91 8 q 70 22 54 49 q 44 65 35 102 q 17 164 17 234 z m 167 694 q 167 709 157 721 q 150 729 138 729 q 126 729 120 721 q 113 713 113 694 l 113 59 q 113 26 120 16 q 128 6 142 6 q 154 6 160 14 q 167 25 167 59 z"},"F":{"x_min":0,"x_max":304,"ha":304,"o":"m 44 722 l 14 722 q 8 726 8 728 q 8 731 14 734 l 283 734 l 283 463 q 283 460 282 459 q 280 458 278 458 q 275 458 273 459 q 272 461 271 475 q 269 535 251 604 q 233 673 217 698 q 208 711 197 717 q 185 722 161 722 l 144 722 l 144 378 q 167 380 183 406 q 208 446 208 529 l 208 556 q 208 559 209 560 q 210 562 213 562 q 215 562 217 560 q 218 558 218 556 l 218 189 q 218 187 217 185 q 215 184 213 184 l 209 185 q 208 187 208 189 l 208 233 q 208 304 184 341 q 168 365 144 366 l 144 13 l 175 13 q 177 13 179 11 q 180 9 180 6 q 180 3 179 2 q 177 0 175 0 l 14 0 q 10 0 8 2 q 6 4 6 6 q 6 9 8 11 q 10 13 14 13 l 44 13 z"},"`":{"x_min":0,"x_max":333,"ha":333,"o":"m 190 720 l 195 564 q 196 560 194 557 q 192 555 189 555 q 183 555 179 562 l 92 720 z"},"k":{"x_min":0,"x_max":317,"ha":317,"o":"m 123 734 l 123 252 l 220 451 q 229 469 229 482 q 229 494 223 501 q 217 508 207 510 l 188 512 q 185 513 185 517 q 185 520 187 522 q 188 524 191 524 l 300 524 q 303 524 304 522 q 306 520 306 517 q 306 513 304 512 l 290 511 q 281 510 274 508 q 263 503 254 491 q 249 483 230 445 l 181 346 l 288 13 l 304 13 q 307 13 309 11 q 311 9 311 6 l 310 2 q 307 0 304 0 l 176 0 q 173 0 172 2 q 170 3 170 6 q 170 9 172 11 q 173 13 176 13 l 200 13 l 123 252 l 123 13 l 143 13 q 148 9 148 6 q 148 3 143 0 l 17 0 q 14 0 12 2 q 10 3 10 6 q 10 9 12 11 q 14 13 17 13 l 35 13 l 35 722 l 17 722 q 14 722 12 724 q 11 726 11 728 q 11 731 12 733 q 14 734 17 734 z"},"u":{"x_min":0,"x_max":295,"ha":295,"o":"m 30 511 l 12 511 q 8 514 8 517 q 8 521 12 524 l 118 524 l 118 34 q 118 28 121 25 q 124 22 129 22 q 140 22 150 38 q 167 62 167 97 l 167 511 l 148 511 q 146 511 145 513 q 144 514 144 518 q 144 521 145 522 q 146 524 148 524 l 255 524 l 255 13 l 272 13 q 274 13 276 11 q 278 9 278 6 q 278 3 276 2 q 274 0 272 0 l 167 0 l 167 39 q 152 14 135 4 q 119 -6 97 -6 q 64 -6 47 11 q 30 29 30 58 z"},"]":{"x_min":0,"x_max":200,"ha":200,"o":"m 73 723 l 20 723 q 17 726 17 729 q 17 732 20 734 l 160 734 l 160 0 l 20 0 q 18 0 16 2 q 14 4 14 7 q 14 10 16 12 q 18 14 20 14 l 73 14 z"},"U":{"x_min":0,"x_max":331,"ha":331,"o":"m 45 722 l 17 722 q 11 726 11 728 q 11 731 17 734 l 173 734 q 176 734 177 733 q 179 731 179 729 q 179 725 177 723 q 176 722 173 722 l 146 722 l 146 50 q 146 29 157 18 q 168 7 188 7 q 222 7 245 34 q 268 62 268 122 l 268 659 q 268 696 261 706 q 255 716 238 720 q 229 722 227 724 q 224 727 224 730 l 225 733 l 229 734 l 306 734 q 309 734 313 729 q 313 727 311 725 q 309 723 304 722 q 294 720 289 710 q 279 695 279 659 l 279 108 q 279 51 250 22 q 221 -7 167 -7 q 98 -7 67 28 q 45 53 45 122 z"},"o":{"x_min":0,"x_max":271,"ha":271,"o":"m 23 226 l 23 322 q 23 437 62 490 q 90 530 134 530 q 189 530 219 472 q 248 414 248 318 l 248 212 q 248 87 210 33 q 183 -6 137 -6 q 111 -6 89 8 q 67 21 50 57 q 32 93 28 152 q 23 211 23 226 z m 161 467 q 161 494 153 505 q 145 516 134 516 q 125 516 117 507 q 110 498 110 479 l 110 69 q 110 31 119 17 q 125 7 137 7 q 148 7 155 16 q 161 24 161 53 z"},"N":{"x_min":0,"x_max":309,"ha":309,"o":"m 246 675 q 246 697 240 707 q 234 717 222 721 l 201 723 q 198 724 198 728 q 198 732 199 733 q 201 735 206 735 l 292 735 q 294 735 295 733 q 296 731 296 729 q 296 727 295 725 q 294 724 287 721 q 271 715 266 706 q 260 696 258 670 l 258 0 l 183 0 l 61 669 l 61 63 q 61 38 66 28 q 72 18 84 14 l 106 12 q 108 11 108 6 q 108 2 107 1 q 106 0 101 0 l 15 0 q 13 0 11 1 q 10 3 10 5 q 10 8 11 9 q 13 10 20 13 q 35 19 41 28 q 46 38 48 64 l 48 722 l 21 722 q 18 722 16 724 q 15 726 15 729 q 15 731 16 733 q 18 734 21 734 l 147 734 l 246 198 z"},"+":{"x_min":0,"x_max":469,"ha":469,"o":"m 48 392 l 212 392 l 212 555 l 257 555 l 257 392 l 420 392 l 420 346 l 257 346 l 257 183 l 212 183 l 212 346 l 48 346 z"},"G":{"x_min":0,"x_max":315,"ha":315,"o":"m 217 688 l 250 733 q 253 739 257 739 q 259 739 260 738 q 261 737 261 734 l 261 443 q 261 440 259 439 q 257 438 255 438 q 251 438 250 439 q 250 441 248 465 q 231 643 198 698 q 179 729 153 729 q 139 729 129 716 q 119 703 119 670 l 119 39 q 119 23 128 14 q 137 5 150 5 q 164 5 172 16 q 184 30 184 55 l 184 328 l 158 328 q 156 328 154 329 q 152 331 152 333 q 152 336 154 338 q 156 340 158 340 l 300 340 q 303 340 304 338 q 306 336 306 333 q 306 331 304 329 q 303 328 300 328 l 278 328 l 278 0 q 278 -4 277 -6 q 276 -7 274 -7 q 272 -7 270 -6 q 269 -4 267 0 l 239 69 q 210 21 192 7 q 174 -7 150 -7 q 83 -7 49 67 q 15 142 15 270 l 15 451 q 15 582 52 662 q 88 742 147 742 q 189 742 217 688 z"},"q":{"x_min":0,"x_max":289,"ha":289,"o":"m 162 -170 l 162 30 q 143 6 133 0 q 124 -6 111 -6 q 79 -6 58 29 q 25 83 25 230 q 25 290 30 361 q 34 433 48 465 q 62 497 83 513 q 105 530 127 530 q 149 530 167 511 q 184 492 193 441 q 217 477 234 509 q 245 530 249 530 q 251 527 251 524 l 251 -170 l 268 -170 q 271 -170 273 -172 q 275 -173 275 -176 l 273 -180 q 271 -182 268 -182 l 138 -182 q 135 -182 134 -180 q 132 -178 132 -176 q 132 -173 134 -171 q 135 -170 138 -170 z m 113 39 q 113 29 118 22 q 122 18 128 18 q 142 18 151 37 q 162 61 162 79 l 162 482 q 162 498 153 509 q 147 516 138 516 q 128 516 122 507 q 113 495 113 467 z"},"d":{"x_min":0,"x_max":283,"ha":283,"o":"m 245 13 l 266 13 q 271 9 271 6 q 271 3 266 0 l 158 0 l 158 39 q 148 17 135 5 q 122 -6 105 -6 q 66 -6 43 52 q 21 110 21 235 q 21 432 55 493 q 76 530 110 530 q 123 530 135 522 q 147 514 158 498 l 158 722 l 130 722 q 125 725 125 729 q 125 731 130 734 l 245 734 z m 158 443 q 158 476 144 495 q 135 509 123 509 q 117 509 113 504 q 108 499 108 490 l 108 41 q 108 26 112 20 q 117 14 123 14 q 131 14 140 27 q 158 51 158 68 z"},"1":{"x_min":0,"x_max":214,"ha":214,"o":"m 61 14 l 61 654 q 29 634 18 634 l 15 636 q 14 638 14 642 q 14 644 22 647 q 82 673 97 722 q 100 729 102 732 q 105 734 109 734 l 144 734 q 147 734 150 731 q 155 725 155 717 l 155 14 l 186 14 q 189 14 192 12 q 194 10 194 7 q 194 4 192 2 q 189 0 186 0 l 19 0 l 15 1 q 13 3 13 7 q 13 10 19 14 z"},"5":{"x_min":0,"x_max":281,"ha":281,"o":"m 42 734 l 237 734 l 237 753 q 241 758 244 758 q 247 758 250 753 l 245 655 q 245 652 243 651 q 241 649 237 649 l 55 649 l 49 433 q 74 483 95 500 q 116 518 145 518 q 199 518 230 457 q 262 396 262 247 q 262 117 233 63 q 196 -6 128 -6 q 84 -6 53 32 q 21 69 21 142 q 21 192 38 213 q 54 234 75 234 q 95 234 111 215 q 126 196 126 160 q 126 122 110 102 q 94 82 73 82 q 63 82 53 84 l 49 85 l 47 84 q 45 82 45 79 q 45 52 68 30 q 90 8 120 8 q 141 8 151 21 q 166 39 166 69 l 166 444 q 166 478 155 493 q 147 503 134 503 q 106 503 82 470 q 47 421 42 326 q 42 322 37 318 q 35 318 33 320 q 31 323 31 326 z"}}}
